<svg width="33" height="32" viewBox="0 0 33 32" fill="none" xmlns="http://www.w3.org/2000/svg">
    <path fill-rule="evenodd" clip-rule="evenodd" d="M12.8271 20.2544C13.7708 20.4041 14.4919 21.2211 14.4919 22.2066V30.0233C14.4919 31.1153 13.6067 32 12.5149 32C11.4227 32 10.5379 31.115 10.5379 30.0233V25.6096L6.70147 27.8246C5.75274 28.3723 4.53811 28.0475 3.99002 27.0982C3.44181 26.1487 3.76727 24.935 4.71668 24.3868L11.4718 20.4867C11.8981 20.2406 12.3781 20.1707 12.8271 20.2544ZM18.2429 21.2131C18.791 20.2638 20.0056 19.939 20.9543 20.4867L27.7095 24.3868C28.6589 24.935 28.9843 26.1487 28.4361 27.0982C27.888 28.0475 26.6734 28.3723 25.7247 27.8246L21.9402 25.6396V30.0233C21.9402 31.115 21.0553 32 19.9631 32C18.8713 32 17.9861 31.1153 17.9861 30.0233V22.3978C17.9471 21.9997 18.0276 21.586 18.2429 21.2131ZM0.495766 11.0982C1.04385 10.1489 2.25849 9.82406 3.20722 10.3718L9.96233 14.2719C10.6093 14.6454 10.9666 15.3281 10.955 16.0256C10.9608 16.7177 10.604 17.3931 9.96233 17.7636L3.20722 21.6637C2.25781 22.2118 1.04397 21.8868 0.495766 20.9373C-0.0523195 19.988 0.273696 18.7736 1.22242 18.2259L5.04707 16.0177L1.22242 13.8096C0.273016 13.2614 -0.05244 12.0477 0.495766 11.0982ZM31.9304 11.0982C32.4786 12.0477 32.1531 13.2614 31.2037 13.8096L27.3791 16.0177L31.2037 18.2259C32.1524 18.7736 32.4785 19.988 31.9304 20.9373C31.3822 21.8868 30.1683 22.2118 29.2189 21.6637L22.4638 17.7636C21.8221 17.3931 21.4653 16.7177 21.4711 16.0256C21.4596 15.3281 21.8168 14.6454 22.4638 14.2719L29.2189 10.3718C30.1676 9.82406 31.3823 10.1489 31.9304 11.0982ZM16.5704 12.3218C16.7205 12.3218 16.9289 12.4082 17.0354 12.5147L19.7148 15.1941C19.8209 15.3002 19.9077 15.5088 19.9077 15.6591V16.3409C19.9077 16.491 19.8213 16.6994 19.7148 16.8059L17.0354 19.4853C16.9293 19.5914 16.7207 19.6782 16.5704 19.6782H15.8886C15.7385 19.6782 15.5301 19.5918 15.4236 19.4853L12.7442 16.8059C12.6381 16.6998 12.5513 16.4912 12.5513 16.3409V15.6591C12.5513 15.509 12.6377 15.3006 12.7442 15.1941L15.4236 12.5147C15.5297 12.4086 15.7383 12.3218 15.8886 12.3218H16.5704ZM16.2446 14.7126H16.2144C16.1042 14.7126 15.9518 14.7757 15.8736 14.854L15.0835 15.6441C15.0054 15.7222 14.9421 15.8744 14.9421 15.9849V16.0151C14.9421 16.1252 15.0052 16.2777 15.0835 16.3559L15.8736 17.146C15.9516 17.2241 16.1038 17.2874 16.2144 17.2874H16.2446C16.3547 17.2874 16.5072 17.2243 16.5854 17.146L17.3755 16.3559C17.4536 16.2778 17.5168 16.1256 17.5168 16.0151V15.9849C17.5168 15.8748 17.4537 15.7223 17.3755 15.6441L16.5854 14.854C16.5073 14.7759 16.3551 14.7126 16.2446 14.7126ZM12.5149 0C13.6067 0 14.4919 0.884672 14.4919 1.97669V9.79343C14.4919 10.3686 14.2462 10.8864 13.8541 11.2476C13.2336 11.8563 12.2607 12.0042 11.4718 11.5487L4.71668 7.64865C3.76727 7.10051 3.44181 5.88679 3.99002 4.93727C4.53811 3.98796 5.75274 3.66314 6.70147 4.21089L10.5379 6.42582V1.97669C10.5379 0.884993 11.4227 0 12.5149 0ZM19.9631 0C21.0553 0 21.9402 0.884993 21.9402 1.97669V6.39587L25.7247 4.21089C26.6734 3.66314 27.888 3.98796 28.4361 4.93727C28.9843 5.88679 28.6589 7.10051 27.7095 7.64865L20.9543 11.5487C20.0056 12.0965 18.791 11.7716 18.2429 10.8223C18.0276 10.4494 17.9471 10.0358 17.9861 9.63769V1.97669C17.9861 0.884672 18.8713 0 19.9631 0Z" fill="white"/>
    </svg>
    