<svg width="25" height="24" viewBox="0 0 25 24" fill="none" xmlns="http://www.w3.org/2000/svg">
<path d="M11.5 20C11.2166 20 10.9791 19.9042 10.7875 19.7125C10.5958 19.5208 10.5 19.2833 10.5 19V13L4.52497 5.375C4.29163 5.09167 4.2583 4.79167 4.42497 4.475C4.59163 4.15833 4.84997 4 5.19997 4H19.8C20.15 4 20.4083 4.15833 20.575 4.475C20.7416 4.79167 20.7083 5.09167 20.475 5.375L14.5 13V19C14.5 19.2833 14.4041 19.5208 14.2125 19.7125C14.0208 19.9042 13.7833 20 13.5 20H11.5Z" fill="#5D6A85"/>
</svg>
