<svg width="24" height="24" viewBox="0 0 24 24" fill="none" xmlns="http://www.w3.org/2000/svg">
<path d="M4.8 10.66V9.8L6.4 9.6V8.24C6.4 5.48 7.41333 4.1 9.44 4.1C9.88 4.1 10.2733 4.18667 10.62 4.36L10.42 5.24C10.2333 5.18667 9.95333 5.16 9.58 5.16C9.20667 5.16 8.89333 5.24667 8.64 5.42C8.4 5.58 8.22667 5.82 8.12 6.14C7.93333 6.64667 7.84 7.36 7.84 8.28V9.6H10.42V10.66H7.84L7.82 20.86C7.82 21.42 7.78667 21.82 7.72 22.06C7.65333 22.3133 7.5 22.46 7.26 22.5L6.14 22.26C6.34 22.02 6.44 21.46 6.44 20.58L6.4 10.66H4.8ZM18.8005 19.02C18.7205 19.1133 18.4671 19.16 18.0405 19.16C17.6138 19.16 17.2338 19.0067 16.9005 18.7C16.5671 18.3933 16.2071 17.8733 15.8205 17.14L14.7805 15.16L12.5005 19H10.9005L14.0605 14.12L12.6005 11.38C12.4005 10.9933 12.1938 10.68 11.9805 10.44C11.7805 10.2 11.5738 10.0267 11.3605 9.92L12.1205 9.36C12.6405 9.36 13.0338 9.56 13.3005 9.96C13.4471 10.1867 14.0071 11.2133 14.9805 13.04L16.9605 9.6H18.5605L15.7005 14.12L16.9005 16.3C17.2338 16.9133 17.5338 17.3733 17.8005 17.68C18.0671 17.9733 18.3805 18.12 18.7405 18.12L18.8005 19.02Z" fill="#5D6A85"/>
</svg>
