<svg width="23" height="24" viewBox="0 0 23 24" fill="none" xmlns="http://www.w3.org/2000/svg">
    <path d="M8.27344 10.3594V12.2188C8.27344 13.1094 8.1849 13.8698 8.00781 14.5C7.83594 15.125 7.58594 15.6328 7.25781 16.0234C6.92969 16.4141 6.53646 16.7005 6.07812 16.8828C5.625 17.0651 5.11719 17.1562 4.55469 17.1562C4.10677 17.1562 3.6901 17.099 3.30469 16.9844C2.92448 16.8698 2.58073 16.6901 2.27344 16.4453C1.96615 16.2005 1.70312 15.8854 1.48438 15.5C1.27083 15.1094 1.10417 14.6432 0.984375 14.1016C0.869792 13.5599 0.8125 12.9323 0.8125 12.2188V10.3594C0.8125 9.46354 0.901042 8.70833 1.07812 8.09375C1.25521 7.47396 1.50781 6.97135 1.83594 6.58594C2.16406 6.19531 2.55469 5.91146 3.00781 5.73438C3.46615 5.55729 3.97656 5.46875 4.53906 5.46875C4.99219 5.46875 5.40885 5.52604 5.78906 5.64062C6.17448 5.75 6.51823 5.92448 6.82031 6.16406C7.1276 6.40365 7.38802 6.71615 7.60156 7.10156C7.82031 7.48177 7.98698 7.94271 8.10156 8.48438C8.21615 9.02083 8.27344 9.64583 8.27344 10.3594ZM6.39062 12.4844V10.0781C6.39062 9.625 6.36458 9.22656 6.3125 8.88281C6.26042 8.53385 6.18229 8.23958 6.07812 8C5.97917 7.75521 5.85417 7.55729 5.70312 7.40625C5.55208 7.25 5.38021 7.13802 5.1875 7.07031C4.99479 6.9974 4.77865 6.96094 4.53906 6.96094C4.2474 6.96094 3.98698 7.01823 3.75781 7.13281C3.52865 7.24219 3.33594 7.41927 3.17969 7.66406C3.02344 7.90885 2.90365 8.23177 2.82031 8.63281C2.74219 9.02865 2.70312 9.51042 2.70312 10.0781V12.4844C2.70312 12.9427 2.72917 13.3464 2.78125 13.6953C2.83333 14.0443 2.91146 14.3438 3.01562 14.5938C3.11979 14.8385 3.24479 15.0417 3.39062 15.2031C3.54167 15.3594 3.71354 15.474 3.90625 15.5469C4.10417 15.6198 4.32031 15.6562 4.55469 15.6562C4.85156 15.6562 5.11458 15.599 5.34375 15.4844C5.57292 15.3698 5.76562 15.1875 5.92188 14.9375C6.07812 14.6823 6.19531 14.3516 6.27344 13.9453C6.35156 13.5391 6.39062 13.0521 6.39062 12.4844ZM19.3781 5.58594V17H17.4953V7.82031L14.7063 8.76562V7.21094L19.1516 5.58594H19.3781Z" fill="#5D6A85"/>
    <path d="M12 19L12 5" stroke="#5D6A85" stroke-width="1.5"/>
    </svg>
    