<svg width="25" height="24" viewBox="0 0 25 24" fill="none" xmlns="http://www.w3.org/2000/svg">
<path fill-rule="evenodd" clip-rule="evenodd" d="M12 9C10.62 9 9.5 10.12 9.5 11.5C9.5 12.88 10.62 14 12 14C13.38 14 14.5 12.88 14.5 11.5C14.5 10.12 13.38 9 12 9ZM20.5 4H4.5C3.4 4 2.5 4.9 2.5 6V18C2.5 19.1 3.4 20 4.5 20H20.5C21.6 20 22.5 19.1 22.5 18V6C22.5 4.9 21.6 4 20.5 4ZM17.29 18.21L14.38 15.3C13.69 15.74 12.87 16 11.99 16C9.51 16 7.5 13.99 7.5 11.5C7.5 9.01 9.51 7 12 7C14.49 7 16.5 9.01 16.5 11.5C16.5 12.38 16.24 13.19 15.8 13.89L18.71 16.79L17.29 18.21Z" fill="#5D6A85"/>
</svg>
