<svg width="24" height="24" viewBox="0 0 24 24" fill="none" xmlns="http://www.w3.org/2000/svg">
<path d="M10.76 17.34V5.92H9.6C9.02667 5.92 8.56 5.94 8.2 5.98C7.84 6.02 7.57333 6.10667 7.4 6.24C7.22667 6.36 7.12667 6.54 7.1 6.78L6.92 8.74H5.8V4.8H17.58V8.74H16.46L16.28 6.78C16.2667 6.54 16.1667 6.36 15.98 6.24C15.8067 6.10667 15.54 6.02 15.18 5.98C14.82 5.94 14.3533 5.92 13.78 5.92H12.62V17.34C12.62 17.6333 12.78 17.8267 13.1 17.92C13.42 18.0133 13.8267 18.06 14.32 18.06H14.64V19H8.74V18.06H9.06C9.55333 18.06 9.96 18.0133 10.28 17.92C10.6 17.8267 10.76 17.6333 10.76 17.34Z" fill="#5D6A85"/>
</svg>
